<svg xmlns="http://www.w3.org/2000/svg" viewBox="0 0 24 24" fill="white"><path d="M17.472 14.382c-.297-.149-1.758-.867-2.03-.967-.273-.099-.472-.148-.672.15-.198.297-.768.966-.941 1.164-.173.199-.347.223-.644.075-.297-.149-1.255-.462-2.39-1.475-.883-.788-1.48-1.761-1.653-2.059-.173-.297-.018-.458.13-.606.134-.133.298-.347.446-.521.149-.174.198-.298.298-.497.099-.198.05-.372-.025-.521-.075-.149-.672-1.614-.92-2.207-.242-.58-.487-.502-.672-.511l-.573-.01c-.198 0-.521.074-.793.372-.273.297-1.04 1.016-1.04 2.479 0 1.462 1.065 2.875 1.213 3.074.149.198 2.095 3.2 5.076 4.487.709.306 1.262.489 1.694.626.712.226 1.36.194 1.872.118.571-.085 1.758-.718 2.006-1.41.248-.694.248-1.289.173-1.414-.074-.124-.272-.198-.57-.347"/></svg>